<?xml version="1.0" encoding="utf-8"?>
<!-- Uploaded to: SVG Repo, www.svgrepo.com, Generator: SVG Repo Mixer Tools -->
<svg width="800px" height="800px" viewBox="0 0 1024 1024" class="icon"  version="1.1" xmlns="http://www.w3.org/2000/svg"><path d="M210.8 386.2h41v41h-41zM307.8 386.2h41v41h-41zM688.8 386.2h41v41h-41zM785.8 386.2h41v41h-41zM688.8 490.2h41v41h-41zM785.8 490.2h41v41h-41zM784.8 595.2h41v41h-41zM208.8 491.2h41v41h-41zM305.8 491.2h41v41h-41zM208.8 596.2h41v41h-41zM483.8 611.2h64v173h-64zM562.8 611.2h76v173h-76zM399.8 611.2h69v173h-69zM527.1 291.6v-6.4c0-1.1-0.9-2-2-2h-19.4c-1.1 0-2 0.9-2 2v10.3c0 3.7-3 6.8-6.8 6.8h-10c-1.1 0-2 0.9-2 2v19.4c0 1.1 0.9 2 2 2h5.9c1.8 0 4.5 1.4 4.5 3.2l0.3 13.3c0 3.3 1 5.9 4.3 5.9h4.2c1.4 0 2.7 0.5 3.8-0.3h14.3c1.7 0 3-1.4 3-3V332c0-3.5 2.8-6.3 6.3-6.3h13.1c1.1 0 2-0.9 2-2V301c0-2.4-2-4.4-4.4-4.4h-12c-2.9 0-5.1-2.2-5.1-5z" fill="#F9C0C0" /><path d="M522 353.7h-22.4c-4.9 0-8.8-3.9-8.8-8.8v-14.4c0-0.4-0.4-0.8-0.8-0.8h-14.4c-4.9 0-8.8-3.9-8.8-8.8v-22.4c0-4.9 3.9-8.8 8.8-8.8h0.3v8h-0.3c-0.4 0-0.8 0.4-0.8 0.8v22.4c0 0.4 0.4 0.8 0.8 0.8H490c4.9 0 8.8 3.9 8.8 8.8v14.4c0 0.4 0.4 0.8 0.8 0.8H522c0.4 0 0.8-0.4 0.8-0.8v-14.4c0-4.9 3.9-8.8 8.8-8.8H546c0.4 0 0.8-0.4 0.8-0.8v-22.4c0-0.4-0.4-0.8-0.8-0.8h-14.4c-4.9 0-8.8-3.9-8.8-8.8v-14.4c0-0.4-0.4-0.8-0.8-0.8h-22.4c-0.4 0-0.8 0.4-0.8 0.8v14.4c0 4.9-3.9 8.8-8.8 8.8h-3.6v-8h3.6c0.4 0 0.8-0.4 0.8-0.8v-14.4c0-4.9 3.9-8.8 8.8-8.8H522c4.9 0 8.8 3.9 8.8 8.8v14.4c0 0.4 0.4 0.8 0.8 0.8H546c4.9 0 8.8 3.9 8.8 8.8v22.4c0 4.9-3.9 8.8-8.8 8.8h-14.4c-0.4 0-0.8 0.4-0.8 0.8v14.4c0 4.9-4 8.8-8.8 8.8z" fill="#CE0202" /><path d="M645.9 792.7H375.7V589.2h270.2v203.5z m-255.2-15h240.2V604.2H390.7v173.5z" fill="#999999" /><path d="M315.49 587.755l390.6-0.509 0.02 15-390.6 0.509z" fill="#999999" /><path d="M554.8 788.2h-88v-196h88v196z m-80-8h72v-180h-72v180z" fill="#999999" /><path d="M63.26 792.766l0.016-15 896 1-0.017 15z" fill="#999999" /><path d="M893.8 793.2h-765V329.7c0-10.8 8.7-19.5 19.5-19.5h258v15h-258c-2.4 0-4.5 2.1-4.5 4.5v448.5h735V329.7c0-2.4-2.1-4.5-4.5-4.5h-258v-15h258c10.8 0 19.5 8.7 19.5 19.5v463.5z" fill="#999999" /><path d="M623.8 601.2h-225V229.7c0-10.8 8.7-19.5 19.5-19.5h186c10.8 0 19.5 8.7 19.5 19.5v371.5z m-210-15h195V229.7c0-2.4-2.1-4.5-4.5-4.5h-186c-2.4 0-4.5 2.1-4.5 4.5v356.5zM136.3 685.7h247v8h-247zM638.768 693.259l0.032-8 247 1-0.032 8zM243.5 431.2h-40c-5.5 0-10-4.5-10-10v-40c0-5.5 4.5-10 10-10h40c5.5 0 10 4.5 10 10v40c0 5.5-4.5 10-10 10z m-40-52c-1.1 0-2 0.9-2 2v40c0 1.1 0.9 2 2 2h40c1.1 0 2-0.9 2-2v-40c0-1.1-0.9-2-2-2h-40zM340.8 431.2h-40c-5.5 0-10-4.5-10-10v-40c0-5.5 4.5-10 10-10h40c5.5 0 10 4.5 10 10v40c0 5.5-4.5 10-10 10z m-40-52c-1.1 0-2 0.9-2 2v40c0 1.1 0.9 2 2 2h40c1.1 0 2-0.9 2-2v-40c0-1.1-0.9-2-2-2h-40zM243.5 536.2h-40c-5.5 0-10-4.5-10-10v-40c0-5.5 4.5-10 10-10h40c5.5 0 10 4.5 10 10v40c0 5.5-4.5 10-10 10z m-40-52c-1.1 0-2 0.9-2 2v40c0 1.1 0.9 2 2 2h40c1.1 0 2-0.9 2-2v-40c0-1.1-0.9-2-2-2h-40zM243.5 641.2h-40c-5.5 0-10-4.5-10-10v-40c0-5.5 4.5-10 10-10h40c5.5 0 10 4.5 10 10v40c0 5.5-4.5 10-10 10z m-40-52c-1.1 0-2 0.9-2 2v40c0 1.1 0.9 2 2 2h40c1.1 0 2-0.9 2-2v-40c0-1.1-0.9-2-2-2h-40zM340.8 536.2h-40c-5.5 0-10-4.5-10-10v-40c0-5.5 4.5-10 10-10h40c5.5 0 10 4.5 10 10v40c0 5.5-4.5 10-10 10z m-40-52c-1.1 0-2 0.9-2 2v40c0 1.1 0.9 2 2 2h40c1.1 0 2-0.9 2-2v-40c0-1.1-0.9-2-2-2h-40zM723.5 431.2h-40c-5.5 0-10-4.5-10-10v-40c0-5.5 4.5-10 10-10h40c5.5 0 10 4.5 10 10v40c0 5.5-4.5 10-10 10z m-40-52c-1.1 0-2 0.9-2 2v40c0 1.1 0.9 2 2 2h40c1.1 0 2-0.9 2-2v-40c0-1.1-0.9-2-2-2h-40zM820.8 431.2h-40c-5.5 0-10-4.5-10-10v-40c0-5.5 4.5-10 10-10h40c5.5 0 10 4.5 10 10v40c0 5.5-4.5 10-10 10z m-40-52c-1.1 0-2 0.9-2 2v40c0 1.1 0.9 2 2 2h40c1.1 0 2-0.9 2-2v-40c0-1.1-0.9-2-2-2h-40zM723.5 536.2h-40c-5.5 0-10-4.5-10-10v-40c0-5.5 4.5-10 10-10h40c5.5 0 10 4.5 10 10v40c0 5.5-4.5 10-10 10z m-40-52c-1.1 0-2 0.9-2 2v40c0 1.1 0.9 2 2 2h40c1.1 0 2-0.9 2-2v-40c0-1.1-0.9-2-2-2h-40zM820.8 641.2h-40c-5.5 0-10-4.5-10-10v-40c0-5.5 4.5-10 10-10h40c5.5 0 10 4.5 10 10v40c0 5.5-4.5 10-10 10z m-40-52c-1.1 0-2 0.9-2 2v40c0 1.1 0.9 2 2 2h40c1.1 0 2-0.9 2-2v-40c0-1.1-0.9-2-2-2h-40zM820.8 536.2h-40c-5.5 0-10-4.5-10-10v-40c0-5.5 4.5-10 10-10h40c5.5 0 10 4.5 10 10v40c0 5.5-4.5 10-10 10z m-40-52c-1.1 0-2 0.9-2 2v40c0 1.1 0.9 2 2 2h40c1.1 0 2-0.9 2-2v-40c0-1.1-0.9-2-2-2h-40z" fill="#999999" /></svg>