<?xml version="1.0" encoding="utf-8"?>
<!-- Generator: Adobe Illustrator 24.0.0, SVG Export Plug-In . SVG Version: 6.00 Build 0)  -->
<svg version="1.1" xmlns="http://www.w3.org/2000/svg" xmlns:xlink="http://www.w3.org/1999/xlink" x="0px" y="0px"
	 viewBox="0 0 256 256" enable-background="new 0 0 256 256" xml:space="preserve">
<g id="Layer_2">
</g>
<g id="Layer_1">
	<g>
	</g>
	<g>
		<path fill="#FFB69F" d="M70.272,59.138H73.1v23.563h-2.828c-6.505,0-11.782-5.276-11.782-11.782
			C58.491,64.405,63.767,59.138,70.272,59.138z"/>
		<path fill="#FFB69F" d="M163.518,70.92c0,6.515-5.276,11.782-11.782,11.782h-2.828V59.138h2.828
			C158.242,59.138,163.518,64.414,163.518,70.92z"/>
		<path fill="#7C7B7A" d="M155.576,4l-16.355,8.535c-4.202,2.193-8.872,3.338-13.611,3.338H89.679
			c-9.164,0-16.593,7.429-16.593,16.593v18.719h75.816l0,0c11.74-12.51,14.547-30.965,7.056-46.399L155.576,4z"/>
		<path fill="#72C2E9" d="M194.2,211.6l-11.56,11.56l17.96,17.96V252H21.4v-85.23c0-25.42,20.61-46.04,46.05-46.04h87.11
			c25.44,0,46.04,20.62,46.04,46.04v51.24L194.2,211.6z"/>
		<path fill="#FFB69F" d="M148.909,51.182v30.892c0,21.261-17.399,39.058-38.656,38.645C89.661,120.319,73.1,103.51,73.1,82.822
			v-31.64H148.909z"/>
		<path fill="#F0C020" d="M189.27,180.235c0,20.954-17.005,37.995-37.995,37.995c-20.994,0-38.006-17.013-38.006-37.995
			c0-20.994,17.013-38.006,38.006-38.006C172.257,142.228,189.27,159.241,189.27,180.235z"/>
		<path fill="#EFEFEF" d="M177.569,180.233c0,14.502-11.769,26.296-26.296,26.296c-14.529,0-26.304-11.774-26.304-26.296
			c0-14.529,11.774-26.304,26.304-26.304C165.795,153.929,177.569,165.704,177.569,180.233z"/>
		<polygon fill="#F0C020" points="234.6,252 211.47,252 200.6,241.12 182.64,223.16 194.2,211.6 200.6,218.01 		"/>
		<polygon fill="#FC5D3D" points="166.248,173.947 157.551,173.947 157.551,165.25 144.988,165.25 144.988,173.947 136.291,173.947 
			136.291,186.51 144.988,186.51 144.988,195.208 157.551,195.208 157.551,186.51 166.248,186.51 		"/>
		<g>
			<g>
				<path fill="#C5E5FE" d="M32.577,244.5c-1.381,0-2.5-1.119-2.5-2.5v-3c0-1.381,1.119-2.5,2.5-2.5s2.5,1.119,2.5,2.5v3
					C35.077,243.38,33.958,244.5,32.577,244.5z M32.577,231.5c-1.381,0-2.5-1.119-2.5-2.5v-65.726
					c0-18.589,15.124-33.713,33.713-33.713c1.381,0,2.5,1.119,2.5,2.5s-1.119,2.5-2.5,2.5c-15.832,0-28.713,12.881-28.713,28.713
					V229C35.077,230.38,33.958,231.5,32.577,231.5z"/>
			</g>
			<path d="M40.082,126.669c0,0.01-0.011,0.01-0.011,0.01c-1.149,0.794-1.414,2.349-0.64,3.47c0.766,1.133,2.325,1.441,3.47,0.65
				c1.141-0.78,1.431-2.34,0.65-3.47C42.802,126.229,41.182,125.919,40.082,126.669z"/>
			<path d="M32.092,133.509c-8.51,9.03-13.19,20.84-13.19,33.26V252c0,1.38,1.12,2.5,2.5,2.5c1.381,0,2.5-1.12,2.5-2.5
				c0-0.01,0-0.01,0-0.021v-85.21c0-11.13,4.2-21.729,11.83-29.83c0.94-1.01,0.9-2.59-0.109-3.54
				C34.651,132.49,33.002,132.54,32.092,133.509z"/>
			<path d="M79.821,104.53c1.181-0.711,1.561-2.25,0.851-3.431c-0.691-1.165-2.208-1.572-3.43-0.85
				c-1.181,0.71-1.561,2.24-0.851,3.42c0,0.01,0,0.01,0,0.01C77.14,104.915,78.703,105.217,79.821,104.53z"/>
			<path d="M98.524,88.828c0-1.381-1.119-2.5-2.5-2.5s-2.5,1.119-2.5,2.5c0,9.645,7.847,17.491,17.492,17.491
				s17.492-7.847,17.492-17.491c0-1.381-1.119-2.5-2.5-2.5s-2.5,1.119-2.5,2.5c0,6.888-5.604,12.491-12.492,12.491
				S98.524,95.715,98.524,88.828z"/>
			<path d="M92.212,66.902c-1.381,0-2.5,1.119-2.5,2.5v2.207c0,1.381,1.119,2.5,2.5,2.5s2.5-1.119,2.5-2.5v-2.207
				C94.712,68.021,93.593,66.902,92.212,66.902z"/>
			<path d="M129.822,74.109c1.381,0,2.5-1.119,2.5-2.5v-2.207c0-1.381-1.119-2.5-2.5-2.5s-2.5,1.119-2.5,2.5v2.207
				C127.322,72.99,128.441,74.109,129.822,74.109z"/>
			<circle cx="55.282" cy="202" r="2.5"/>
			<path d="M57.782,176.019c0-1.38-1.12-2.5-2.5-2.5c-1.381,0-2.5,1.12-2.5,2.5V192c0,1.38,1.119,2.5,2.5,2.5
				c1.38,0,2.5-1.12,2.5-2.5V176.019z"/>
			<path d="M55.282,209.5c-1.381,0-2.5,1.12-2.5,2.5v40c0,1.38,1.119,2.5,2.5,2.5c1.38,0,2.5-1.12,2.5-2.5v-40
				C57.782,210.62,56.662,209.5,55.282,209.5z"/>
			<path d="M113.517,81.62V68.837c0-1.381-1.119-2.5-2.5-2.5s-2.5,1.119-2.5,2.5V81.62c0,1.381,1.119,2.5,2.5,2.5
				S113.517,83.001,113.517,81.62z"/>
			<path d="M236.366,253.767c0.977-0.977,0.977-2.559,0-3.535l-33.265-33.265v-50.198c0-26.863-21.77-48.54-48.54-48.54h-24.075
				c11.739-6.482,20.018-18.628,20.85-33.028c8.825,0,14.684-6.81,14.684-14.281c0-7.494-5.909-14.282-14.608-14.282v-4.5
				c11.18-12.493,15.056-31.439,6.415-49.23c-0.614-1.266-2.157-1.775-3.405-1.125c-17.171,8.962-20.547,11.59-28.81,11.59H89.681
				c-10.527,0-19.093,8.565-19.093,19.093c0,2.58,0.014,21.59,0.014,24.172c-8.691,0-14.609,6.78-14.609,14.282
				c0,7.403,5.791,14.281,14.691,14.281c0.173,2.967,0.655,5.897,1.468,8.738c0.36,1.29,1.78,2.091,3.091,1.721
				c1.319-0.38,2.09-1.771,1.72-3.08c0-0.011,0-0.011-0.01-0.021c-0.939-3.285-1.351-6.528-1.351-9.858c0-10.312,0-18.625,0-29.016
				h70.811c0,10.084,0,19.166,0,29.134c0,19.607-15.874,35.41-35.41,35.41c-9.181,0-17.88-3.5-24.51-9.859
				c-0.971-0.931-2.61-0.891-3.53,0.069c-0.96,1-0.93,2.58,0.07,3.54c2.581,2.476,5.444,4.562,8.506,6.25H67.452
				c-6.25,0-12.341,1.17-18.101,3.48c-1.279,0.525-1.894,1.985-1.38,3.26c0.515,1.289,1.975,1.891,3.25,1.38
				c5.16-2.069,10.62-3.12,16.23-3.12h87.109c24.119,0,43.54,19.523,43.54,43.54v45.198l-2.132-2.132
				c-0.977-0.977-2.56-0.976-3.534-0.001l-4.022,4.019l-6.818-6.817c6.325-7.147,10.175-16.531,10.175-26.802
				c0-22.335-18.166-40.506-40.494-40.506c-22.335,0-40.506,18.171-40.506,40.506c0,22.329,18.171,40.495,40.506,40.495
				c4.528,0,8.88-0.758,12.949-2.136V252c0,1.381,1.119,2.5,2.5,2.5s2.5-1.119,2.5-2.5v-35.48c3.208-1.594,6.175-3.6,8.833-5.95
				l6.817,6.817l-4.005,4.002c-0.978,0.976-0.978,2.559-0.001,3.536l17.23,17.236V252c0,1.38,1.12,2.5,2.5,2.5s2.5-1.12,2.5-2.5
				v-4.837l6.602,6.604c0.976,0.978,2.56,0.977,3.535,0.002c0.978-0.976,0.978-2.559,0.002-3.535
				c-9.362-9.365-17.699-17.705-27.065-27.075c2.944-2.942,5.068-5.065,8.026-8.021c4.136,4.136,32.742,32.742,38.63,38.63
				C233.808,254.744,235.39,254.744,236.366,253.767z M161.021,70.919c0,4.814-3.741,9.281-9.608,9.281V61.637
				C157.304,61.637,161.021,66.133,161.021,70.919z M75.588,32.465c0-7.771,6.322-14.093,14.093-14.093h35.932
				c9.638,0,14.364-3.411,28.808-10.948c5.941,13.768,3.355,30.021-6.618,41.261H75.588V32.465z M60.992,70.919
				c0-4.814,3.742-9.282,9.609-9.282v18.563C64.71,80.201,60.992,75.706,60.992,70.919z M115.771,180.234
				c0-19.578,15.928-35.506,35.506-35.506c19.571,0,35.494,15.928,35.494,35.506c0,19.572-15.923,35.495-35.494,35.495
				C131.699,215.729,115.771,199.806,115.771,180.234z"/>
			<path d="M166.25,171.447h-6.197v-6.197c0-1.381-1.119-2.5-2.5-2.5H144.99c-1.381,0-2.5,1.119-2.5,2.5v6.197h-6.197
				c-1.381,0-2.5,1.119-2.5,2.5v12.563c0,1.381,1.119,2.5,2.5,2.5h6.197v6.197c0,1.381,1.119,2.5,2.5,2.5h12.563
				c1.381,0,2.5-1.119,2.5-2.5v-6.197h6.197c1.381,0,2.5-1.119,2.5-2.5v-12.563C168.75,172.566,167.631,171.447,166.25,171.447z
				 M163.75,184.01h-6.197c-1.381,0-2.5,1.119-2.5,2.5v6.197h-7.563v-6.197c0-1.381-1.119-2.5-2.5-2.5h-6.197v-7.563h6.197
				c1.381,0,2.5-1.119,2.5-2.5v-6.197h7.563v6.197c0,1.381,1.119,2.5,2.5,2.5h6.197V184.01z"/>
			<path d="M151.275,151.428c-15.883,0-28.804,12.922-28.804,28.805c0,15.878,12.921,28.795,28.804,28.795
				c15.878,0,28.796-12.917,28.796-28.795C180.071,164.35,167.153,151.428,151.275,151.428z M151.275,204.028
				c-13.125,0-23.804-10.675-23.804-23.795c0-13.126,10.679-23.805,23.804-23.805c13.121,0,23.796,10.679,23.796,23.805
				C175.071,193.353,164.396,204.028,151.275,204.028z"/>
		</g>
	</g>
</g>
</svg>
