<?xml version="1.0" encoding="utf-8"?>
<!-- Generator: Adobe Illustrator 22.1.0, SVG Export Plug-In . SVG Version: 6.00 Build 0)  -->
<svg version="1.1" id="Icon_Set" xmlns="http://www.w3.org/2000/svg" xmlns:xlink="http://www.w3.org/1999/xlink" x="0px" y="0px"
	 viewBox="0 0 512 512" style="enable-background:new 0 0 512 512;" xml:space="preserve">
<style type="text/css">
	.st0{fill:#F0C48A;}
	.st1{fill:#FD919E;}
	.st2{fill:#4C4372;}
	.st3{fill:#D3E6F8;}
	.st4{fill:#A4CFF2;}
	.st5{fill:#7BABF1;}
	.st6{fill:#FFFFFF;}
	.st7{fill:#E8677D;}
	.st8{fill:none;stroke:#4C4372;stroke-width:12;stroke-linecap:round;stroke-linejoin:round;stroke-miterlimit:10;}
</style>
<g id="Medical_Book">
	<g>
		<g>
			<circle class="st0" cx="256" cy="256" r="207"/>
		</g>
	</g>
	<g>
		<g>
			<path class="st3" d="M362.48,366.527H149.52V135.709c0-19.796,16.048-35.844,35.845-35.844H362.48V366.527z"/>
		</g>
		<g>
			<rect x="324.919" y="99.865" class="st4" width="37.561" height="230.818"/>
		</g>
		<g>
			<path class="st5" d="M149.52,135.709v230.818h35.845v-35.845V99.865C165.568,99.865,149.52,115.913,149.52,135.709z"/>
		</g>
		<g>
			<g>
				<polygon class="st1" points="321.713,198.612 289.803,198.612 289.803,166.702 256.48,166.702 256.48,198.612 224.569,198.612 
					224.569,231.936 256.48,231.936 256.48,263.846 289.803,263.846 289.803,231.936 321.713,231.936 				"/>
			</g>
			<g>
				<path class="st2" d="M289.803,269.846h-33.323c-3.313,0-6-2.687-6-6v-25.91h-25.91c-3.313,0-6-2.687-6-6v-33.324
					c0-3.314,2.687-6,6-6h25.91v-25.91c0-3.313,2.687-6,6-6h33.323c3.313,0,6,2.687,6,6v25.91h25.91c3.313,0,6,2.686,6,6v33.324
					c0,3.313-2.687,6-6,6h-25.91v25.91C295.803,267.159,293.116,269.846,289.803,269.846z M262.479,257.846h21.323v-25.91
					c0-3.313,2.687-6,6-6h25.91v-21.324h-25.91c-3.313,0-6-2.687-6-6v-25.91h-21.323v25.91c0,3.313-2.687,6-6,6h-25.91v21.324h25.91
					c3.313,0,6,2.687,6,6V257.846z"/>
			</g>
		</g>
		<g>
			<path class="st2" d="M185.365,372.527H149.52c-3.313,0-6-2.687-6-6V135.709c0-23.073,18.771-41.845,41.845-41.845
				c3.313,0,6,2.687,6,6v266.663C191.365,369.841,188.678,372.527,185.365,372.527z M155.52,360.527h23.845V106.471
				c-13.591,2.784-23.845,14.836-23.845,29.239V360.527z"/>
		</g>
		<g>
			<path class="st2" d="M362.479,372.527H149.521c-3.313,0-6-2.687-6-6V135.709c0-23.073,18.771-41.845,41.844-41.845h177.115
				c3.313,0,6,2.687,6,6v266.663C368.479,369.841,365.793,372.527,362.479,372.527z M155.521,360.527h200.959V105.865H185.365
				c-16.456,0-29.844,13.388-29.844,29.845V360.527z"/>
		</g>
		<g>
			<path class="st6" d="M362.48,402.372H185.365c-19.796,0-35.845-16.048-35.845-35.845v0c0-19.796,16.048-35.844,35.845-35.844
				H362.48V402.372z"/>
		</g>
		<g>
			<rect x="324.919" y="330.683" class="st3" width="37.561" height="71.689"/>
		</g>
		<g>
			<path class="st2" d="M362.479,408.372H185.365c-23.073,0-41.844-18.771-41.844-41.844s18.771-41.845,41.844-41.845h177.115
				c3.313,0,6,2.687,6,6v71.689C368.479,405.685,365.793,408.372,362.479,408.372z M185.365,336.683
				c-16.456,0-29.844,13.388-29.844,29.845c0,16.456,13.388,29.844,29.844,29.844h171.115v-59.689H185.365z"/>
		</g>
		<g>
			<polygon class="st1" points="185.365,366.527 215.353,366.527 215.353,412.135 200.359,402.372 185.365,412.135 			"/>
		</g>
		<g>
			<path class="st2" d="M215.354,418.135c-1.143,0-2.282-0.326-3.274-0.972l-11.72-7.631l-11.72,7.631
				c-1.845,1.201-4.198,1.295-6.134,0.247c-1.935-1.049-3.14-3.074-3.14-5.275v-45.608c0-3.313,2.687-6,6-6h29.988
				c3.313,0,6,2.687,6,6v45.608c0,2.201-1.205,4.226-3.14,5.275C217.318,417.895,216.335,418.135,215.354,418.135z M200.359,396.372
				c1.14,0,2.279,0.324,3.274,0.972l5.72,3.725v-28.541h-17.988v28.541l5.72-3.725C198.08,396.696,199.219,396.372,200.359,396.372z
				"/>
		</g>
		<g>
			<path class="st2" d="M233.992,372.527h-18.639c-3.313,0-6-2.687-6-6s2.687-6,6-6h18.639c3.313,0,6,2.687,6,6
				S237.306,372.527,233.992,372.527z"/>
		</g>
		<g>
			<path class="st2" d="M362.479,386.219h-78.794c-3.313,0-6-2.687-6-6s2.687-6,6-6h78.794c3.313,0,6,2.687,6,6
				S365.793,386.219,362.479,386.219z"/>
		</g>
		<g>
			<path class="st2" d="M362.479,361.475h-47.161c-3.313,0-6-2.687-6-6s2.687-6,6-6h47.161c3.313,0,6,2.687,6,6
				S365.793,361.475,362.479,361.475z"/>
		</g>
	</g>
</g>
</svg>
