<?xml version="1.0" encoding="iso-8859-1"?>
<!-- Generator: Adobe Illustrator 19.0.0, SVG Export Plug-In . SVG Version: 6.00 Build 0)  -->
<svg xmlns="http://www.w3.org/2000/svg" xmlns:xlink="http://www.w3.org/1999/xlink" version="1.1" id="Capa_1" x="0px" y="0px" viewBox="0 0 512 512" style="enable-background:new 0 0 512 512;" xml:space="preserve">
<path style="fill:#F9F1EF;" d="M504.48,441.994V157.278c0-19.198-15.562-34.76-34.759-34.762H42.282  c-19.199,0-34.762,15.563-34.762,34.762v284.716c0,19.198,15.563,34.762,34.762,34.762h427.435  C488.917,476.756,504.48,461.192,504.48,441.994z"/>
<path style="fill:#DDDBDB;" d="M469.721,122.515h-30.08c19.197,0.002,34.759,15.564,34.759,34.762v284.716  c0,19.198-15.563,34.762-34.762,34.762h30.08c19.199,0,34.762-15.563,34.762-34.762V157.278  C504.48,138.08,488.918,122.517,469.721,122.515z"/>
<path style="fill:#F2CA5A;" d="M413.484,300.426L413.484,300.426c-13.886,0-25.143-11.257-25.143-25.143v-54.244h50.285v54.244  C438.627,289.17,427.37,300.426,413.484,300.426z"/>
<path style="fill:#565656;" d="M347.843,35.244H164.157c-19.469,0-35.252,15.152-35.252,33.842v53.429h41.331v-50.48h171.529v50.481  h41.331V69.087C383.095,50.396,367.313,35.244,347.843,35.244z"/>
<path style="fill:#494949;" d="M347.843,35.244h-30.08c19.469,0,35.252,15.152,35.252,33.842v53.429h30.08V69.087  C383.095,50.396,367.313,35.244,347.843,35.244z"/>
<path style="fill:#EF3A47;" d="M469.721,122.515H42.282c-19.199,0-34.762,15.563-34.762,34.762v96.135h65.853v-32.33h50.285v32.33  h264.684v-32.33h50.285v32.33h65.853v-96.135C504.48,138.08,488.918,122.517,469.721,122.515z"/>
<path style="fill:#CE3043;" d="M469.721,122.515h-30.08c19.197,0.002,34.759,15.564,34.759,34.762v96.135h30.08v-96.135  C504.48,138.08,488.918,122.517,469.721,122.515z"/>
<path style="fill:#EF3A47;" d="M311.237,335.756h-31.111v-31.111c0-4.78-3.874-8.654-8.654-8.654h-30.943  c-4.78,0-8.654,3.874-8.654,8.654v31.111h-31.112c-4.78,0-8.654,3.874-8.654,8.654v30.943c0,4.78,3.874,8.654,8.654,8.654h31.111  v31.111c0,4.78,3.874,8.654,8.654,8.654h30.943c4.78,0,8.654-3.874,8.654-8.654v-31.111h31.111c4.78,0,8.654-3.874,8.654-8.654  V344.41C319.891,339.63,316.015,335.756,311.237,335.756z"/>
<path style="fill:#F2CA5A;" d="M98.516,300.443L98.516,300.443c-13.886,0-25.143-11.257-25.143-25.143v-54.244h50.285V275.3  C123.657,289.186,112.402,300.443,98.516,300.443z"/>
<g>
	<path style="fill:#FFAE47;" d="M103.604,221.056V275.3c0,10.32-6.222,19.185-15.116,23.058c3.072,1.338,6.461,2.085,10.027,2.085   l0,0c13.886,0,25.143-11.257,25.143-25.143v-54.244L103.604,221.056L103.604,221.056z"/>
	<path style="fill:#FFAE47;" d="M418.574,221.056V275.3c0,10.32-6.222,19.185-15.116,23.058c3.072,1.338,6.462,2.085,10.027,2.085   l0,0c13.886,0,25.143-11.257,25.143-25.143v-54.244L418.574,221.056L418.574,221.056z"/>
</g>
<path d="M240.529,431.292h30.942c8.92,0,16.175-7.255,16.175-16.174v-23.591h23.59c8.92,0,16.175-7.255,16.175-16.174V344.41  c0-8.919-7.255-16.174-16.175-16.174h-23.59v-23.591c0-8.919-7.255-16.174-16.175-16.174h-30.942  c-8.919,0-16.174,7.255-16.174,16.174v23.591h-23.592c-8.919,0-16.174,7.255-16.174,16.174v30.943  c0,8.919,7.255,16.174,16.174,16.174h23.591v23.591C224.354,424.036,231.61,431.292,240.529,431.292z M200.763,376.487  c-0.626,0-1.134-0.508-1.134-1.134V344.41c0-0.626,0.508-1.134,1.134-1.134h31.111c4.153,0,7.52-3.366,7.52-7.52v-31.111  c0-0.626,0.508-1.134,1.134-1.134h30.942c0.626,0,1.135,0.508,1.135,1.134v31.111c0,4.154,3.366,7.52,7.52,7.52h31.11  c0.626,0,1.135,0.508,1.135,1.134v30.943c0,0.626-0.509,1.134-1.135,1.134h-31.11c-4.154,0-7.52,3.366-7.52,7.52v31.111  c0,0.626-0.509,1.134-1.135,1.134h-30.942c-0.626,0-1.134-0.508-1.134-1.134v-31.111c0-4.154-3.367-7.52-7.52-7.52H200.763z"/>
<path d="M469.721,114.995h-79.106V69.087c0-22.808-19.188-41.363-42.772-41.363H164.157c-23.585,0-42.772,18.555-42.772,41.363  v45.909H42.282C18.967,114.995,0,133.963,0,157.278v96.135v188.581c0,23.315,18.967,42.282,42.282,42.282h280.764  c4.154,0,7.52-3.366,7.52-7.52c0-4.153-3.366-7.52-7.52-7.52H42.282c-15.021,0-27.242-12.22-27.242-27.242V260.933h50.813V275.3  c0,18.011,14.652,32.663,32.663,32.663s32.663-14.652,32.663-32.663v-14.367h43.004c4.153,0,7.52-3.366,7.52-7.52  s-3.367-7.52-7.52-7.52h-43.004v-24.81v-0.026c0-4.154-3.367-7.52-7.52-7.52H73.373c-4.153,0-7.52,3.366-7.52,7.52v0.026v24.81  H15.04v-88.615c0-15.021,12.22-27.242,27.242-27.242h86.623h41.331h171.529h41.331h86.625c15.02,0.002,27.24,12.221,27.24,27.242  v88.615h-50.813v-24.81v-0.043c0-4.153-3.366-7.52-7.52-7.52h-50.285c-4.154,0-7.52,3.367-7.52,7.52v0.043v24.81H204.263  c-4.153,0-7.52,3.366-7.52,7.52s3.367,7.52,7.52,7.52h176.56v14.352c0,18.01,14.652,32.662,32.662,32.662  c18.011,0,32.663-14.652,32.663-32.662v-14.352h50.813v181.061c0,15.022-12.22,27.242-27.242,27.242H353.127  c-4.154,0-7.52,3.367-7.52,7.52c0,4.154,3.366,7.52,7.52,7.52h116.591c23.315,0,42.282-18.967,42.282-42.282V253.413v-96.135  C512,133.966,493.034,114.997,469.721,114.995z M116.138,275.3c0,9.717-7.905,17.623-17.623,17.623  c-9.717,0-17.623-7.906-17.623-17.623v-21.887v-24.81h35.245v24.81V275.3H116.138z M349.285,114.995V72.034  c0-4.154-3.366-7.52-7.52-7.52h-36.419c-4.154,0-7.52,3.366-7.52,7.52c0,4.153,3.366,7.52,7.52,7.52h28.899v35.441h-156.49V79.554  h97.511c4.154,0,7.52-3.367,7.52-7.52c0-4.154-3.366-7.52-7.52-7.52H170.235c-4.153,0-7.52,3.366-7.52,7.52v42.961h-26.291V69.087  c0-14.515,12.44-26.323,27.732-26.323h183.686c15.292,0,27.732,11.808,27.732,26.323v45.909H349.285z M431.107,275.284  c0,9.717-7.906,17.622-17.623,17.622c-9.717,0-17.622-7.905-17.622-17.622v-21.871v-24.81h35.245v24.81V275.284z"/>
<g>
</g>
<g>
</g>
<g>
</g>
<g>
</g>
<g>
</g>
<g>
</g>
<g>
</g>
<g>
</g>
<g>
</g>
<g>
</g>
<g>
</g>
<g>
</g>
<g>
</g>
<g>
</g>
<g>
</g>
</svg>
